<svg width="108" height="119" viewBox="0 0 108 119" fill="none" xmlns="http://www.w3.org/2000/svg">
<path d="M40.368 65L49.008 45.8C46.5333 44.776 44.5493 43.0693 43.056 40.68C41.6053 38.248 40.88 35.5173 40.88 32.488C40.88 29.5867 41.5413 27.0693 42.864 24.936C44.2293 22.8027 46.128 21.16 48.56 20.008C51.0347 18.856 53.9147 18.28 57.2 18.28H72.176V65H62.64V47.336H58.16L50.672 65H40.368ZM57.2 39.016H62.64V26.6H57.2C55.1093 26.6 53.4667 27.1547 52.272 28.264C51.0773 29.3733 50.48 30.9307 50.48 32.936C50.48 34.856 51.0773 36.3493 52.272 37.416C53.4667 38.4827 55.1093 39.016 57.2 39.016Z" fill="black"/>
<path d="M69.96 100.32V91.68H71.88C72.9893 91.68 73.9067 91.0827 74.632 89.888C75.3573 88.6933 75.7413 87.1573 75.784 85.28L76.296 53.28H103.176V100H93.576V62.24H85.704L85.32 85.28C85.2773 89.888 84.0827 93.5573 81.736 96.288C79.432 98.976 76.36 100.32 72.52 100.32H69.96Z" fill="#DD0000"/>
<path d="M1.408 102.96V85.808H3.392C3.86133 85.04 4.352 83.9947 4.864 82.672C5.41867 81.3067 5.888 79.7493 6.272 78C6.656 76.208 6.848 74.288 6.848 72.24L7.232 47.28H33.152V85.808H36.992V102.96H28.032V94H10.368V102.96H1.408ZM12.8 85.808H24.192V55.472H16.064L15.808 72.176C15.7653 75.1627 15.4027 77.8933 14.72 80.368C14.0373 82.8 13.3973 84.6133 12.8 85.808Z" fill="#003893"/>
</svg>
