<svg width="128" height="128" viewBox="0 0 128 128" fill="none" xmlns="http://www.w3.org/2000/svg">
<circle cx="64" cy="64" r="64" fill="black"/>
<path d="M46 89L55.507 68.4521C52.784 67.3562 50.6009 65.5297 48.9577 62.9726C47.3615 60.3699 46.5634 57.4475 46.5634 54.2055C46.5634 51.1005 47.2911 48.4064 48.7465 46.1233C50.2488 43.8402 52.338 42.0822 55.0141 40.8493C57.7371 39.6164 60.9061 39 64.5211 39H81V89H70.507V70.0959H65.5775L57.338 89H46ZM64.5211 61.1918H70.507V47.9041H64.5211C62.2207 47.9041 60.4131 48.4977 59.0986 49.6849C57.784 50.8721 57.1268 52.5388 57.1268 54.6849C57.1268 56.7397 57.784 58.3379 59.0986 59.4794C60.4131 60.621 62.2207 61.1918 64.5211 61.1918Z" fill="#DD0000"/>
</svg>
