<svg width="298" height="140" viewBox="0 0 298 140" fill="none" xmlns="http://www.w3.org/2000/svg">
<rect y="3" width="298" height="137" fill="#04001C"/>
<path d="M31.456 121.64C28.3413 121.64 25.6107 121.064 23.264 119.912C20.9173 118.717 19.0827 117.075 17.76 114.984C16.48 112.851 15.84 110.376 15.84 107.56V87.72C15.84 84.8613 16.48 82.3867 17.76 80.296C19.0827 78.2053 20.9173 76.584 23.264 75.432C25.6107 74.2373 28.3413 73.64 31.456 73.64C34.6133 73.64 37.344 74.2373 39.648 75.432C41.9947 76.584 43.808 78.2053 45.088 80.296C46.4107 82.3867 47.072 84.8613 47.072 87.72H37.472C37.472 85.8427 36.9387 84.4133 35.872 83.432C34.848 82.4507 33.376 81.96 31.456 81.96C29.536 81.96 28.0427 82.4507 26.976 83.432C25.952 84.4133 25.44 85.8427 25.44 87.72V107.56C25.44 109.395 25.952 110.824 26.976 111.848C28.0427 112.829 29.536 113.32 31.456 113.32C33.376 113.32 34.848 112.829 35.872 111.848C36.9387 110.824 37.472 109.395 37.472 107.56H47.072C47.072 110.376 46.4107 112.851 45.088 114.984C43.808 117.075 41.9947 118.717 39.648 119.912C37.344 121.064 34.6133 121.64 31.456 121.64ZM51.335 121.32V112.68H53.255C54.3643 112.68 55.2817 112.083 56.007 110.888C56.7323 109.693 57.1163 108.157 57.159 106.28L57.671 74.28H84.551V121H74.951V83.24H67.079L66.695 106.28C66.6523 110.888 65.4577 114.557 63.111 117.288C60.807 119.976 57.735 121.32 53.895 121.32H51.335Z" fill="#DD0000"/>
<path d="M131.349 121V74.28H146.389C151.125 74.28 154.901 75.368 157.717 77.544C160.533 79.6773 161.941 82.5787 161.941 86.248C161.941 88.296 161.45 90.088 160.469 91.624C159.53 93.16 158.25 94.3547 156.629 95.208C155.05 96.0613 153.322 96.488 151.445 96.488V96.68C153.536 96.6373 155.434 97.0213 157.141 97.832C158.89 98.6427 160.298 99.8587 161.365 101.48C162.432 103.101 162.965 105.107 162.965 107.496C162.965 110.227 162.304 112.616 160.981 114.664C159.701 116.669 157.866 118.227 155.477 119.336C153.088 120.445 150.25 121 146.965 121H131.349ZM140.629 113.256H146.581C148.672 113.256 150.314 112.701 151.509 111.592C152.704 110.483 153.301 108.947 153.301 106.984C153.301 105.021 152.704 103.485 151.509 102.376C150.314 101.224 148.672 100.648 146.581 100.648H140.629V113.256ZM140.629 93.096H146.261C148.138 93.096 149.61 92.6053 150.677 91.624C151.744 90.6 152.277 89.2347 152.277 87.528C152.277 85.7787 151.744 84.4347 150.677 83.496C149.61 82.5147 148.138 82.024 146.261 82.024H140.629V93.096Z" fill="white"/>
<path d="M246.474 121V74.28H256.074V92.2H266.826V74.28H276.426V121H266.826V101.16H256.074V121H246.474Z" fill="#003893"/>
<path d="M166 122L184.199 78.8493C178.987 76.5479 174.808 72.7123 171.662 67.3425C168.606 61.8767 167.078 55.7397 167.078 48.9315C167.078 42.411 168.471 36.7534 171.258 31.9589C174.133 27.1644 178.133 23.4726 183.256 20.8836C188.468 18.2945 194.535 17 201.455 17H233V122H212.913V82.3014H203.477L187.704 122H166ZM201.455 63.6027H212.913V35.6986H201.455C197.051 35.6986 193.591 36.9452 191.074 39.4384C188.558 41.9315 187.3 45.4315 187.3 49.9384C187.3 54.2534 188.558 57.6096 191.074 60.0068C193.591 62.4041 197.051 63.6027 201.455 63.6027Z" fill="#003893"/>
<path d="M31.2 65.64C27.9147 65.64 25.056 65.0853 22.624 63.976C20.192 62.8667 18.3147 61.3093 16.992 59.304C15.6693 57.2987 15.008 54.9307 15.008 52.2H24.608C24.608 53.7787 25.2053 55.0373 26.4 55.976C27.6373 56.872 29.3013 57.32 31.392 57.32C33.3973 57.32 34.9547 56.872 36.064 55.976C37.216 55.08 37.792 53.8427 37.792 52.264C37.792 50.8987 37.3653 49.7253 36.512 48.744C35.6587 47.7627 34.464 47.1013 32.928 46.76L28.192 45.672C24.224 44.7333 21.1307 43.0053 18.912 40.488C16.736 37.928 15.648 34.8133 15.648 31.144C15.648 28.4133 16.2667 26.0453 17.504 24.04C18.784 21.992 20.576 20.4133 22.88 19.304C25.184 18.1947 27.9147 17.64 31.072 17.64C35.8507 17.64 39.6267 18.8347 42.4 21.224C45.216 23.5707 46.624 26.7493 46.624 30.76H37.024C37.024 29.2667 36.4907 28.0933 35.424 27.24C34.4 26.3867 32.9067 25.96 30.944 25.96C29.1093 25.96 27.7013 26.3867 26.72 27.24C25.7387 28.0507 25.248 29.224 25.248 30.76C25.248 32.1253 25.632 33.2987 26.4 34.28C27.2107 35.2187 28.3413 35.8587 29.792 36.2L34.784 37.352C38.9227 38.2907 42.0587 39.9973 44.192 42.472C46.3253 44.904 47.392 48.0187 47.392 51.816C47.392 54.5467 46.7093 56.9573 45.344 59.048C44.0213 61.1387 42.144 62.76 39.712 63.912C37.3227 65.064 34.4853 65.64 31.2 65.64ZM56.455 65V18.28H66.055V56.04H84.935V65H56.455Z" fill="#DD0000"/>
<path d="M140.309 65L128.725 18.28H138.645L145.109 47.784C145.322 48.808 145.578 50.1093 145.877 51.688C146.218 53.2667 146.474 54.6107 146.645 55.72C146.816 54.6107 147.029 53.2667 147.285 51.688C147.541 50.1093 147.776 48.7867 147.989 47.72L154.261 18.28H163.925L152.469 65H140.309Z" fill="white"/>
<path d="M246.09 65V18.28H257.29L269.386 54.44C269.258 52.8613 269.109 51.048 268.938 49C268.767 46.9093 268.618 44.84 268.49 42.792C268.405 40.7013 268.362 38.9307 268.362 37.48V18.28H276.81V65H265.61L253.642 28.84C253.77 30.2053 253.898 31.8267 254.026 33.704C254.154 35.5813 254.261 37.48 254.346 39.4C254.474 41.32 254.538 43.0267 254.538 44.52V65H246.09Z" fill="#003893"/>
<rect x="97" y="22" width="21" height="95" rx="10.5" stroke="white" stroke-width="10"/>
</svg>
