<svg width="269" height="140" viewBox="0 0 269 140" fill="none" xmlns="http://www.w3.org/2000/svg">
<path d="M19.456 121.64C16.3413 121.64 13.6107 121.064 11.264 119.912C8.91733 118.717 7.08267 117.075 5.76 114.984C4.48 112.851 3.84 110.376 3.84 107.56V87.72C3.84 84.8613 4.48 82.3867 5.76 80.296C7.08267 78.2053 8.91733 76.584 11.264 75.432C13.6107 74.2373 16.3413 73.64 19.456 73.64C22.6133 73.64 25.344 74.2373 27.648 75.432C29.9947 76.584 31.808 78.2053 33.088 80.296C34.4107 82.3867 35.072 84.8613 35.072 87.72H25.472C25.472 85.8427 24.9387 84.4133 23.872 83.432C22.848 82.4507 21.376 81.96 19.456 81.96C17.536 81.96 16.0427 82.4507 14.976 83.432C13.952 84.4133 13.44 85.8427 13.44 87.72V107.56C13.44 109.395 13.952 110.824 14.976 111.848C16.0427 112.829 17.536 113.32 19.456 113.32C21.376 113.32 22.848 112.829 23.872 111.848C24.9387 110.824 25.472 109.395 25.472 107.56H35.072C35.072 110.376 34.4107 112.851 33.088 114.984C31.808 117.075 29.9947 118.717 27.648 119.912C25.344 121.064 22.6133 121.64 19.456 121.64ZM39.335 121.32V112.68H41.255C42.3643 112.68 43.2817 112.083 44.007 110.888C44.7323 109.693 45.1163 108.157 45.159 106.28L45.671 74.28H72.551V121H62.951V83.24H55.079L54.695 106.28C54.6523 110.888 53.4577 114.557 51.111 117.288C48.807 119.976 45.735 121.32 41.895 121.32H39.335ZM119.349 121V74.28H134.389C139.125 74.28 142.901 75.368 145.717 77.544C148.533 79.6773 149.941 82.5787 149.941 86.248C149.941 88.296 149.45 90.088 148.469 91.624C147.53 93.16 146.25 94.3547 144.629 95.208C143.05 96.0613 141.322 96.488 139.445 96.488V96.68C141.536 96.6373 143.434 97.0213 145.141 97.832C146.89 98.6427 148.298 99.8587 149.365 101.48C150.432 103.101 150.965 105.107 150.965 107.496C150.965 110.227 150.304 112.616 148.981 114.664C147.701 116.669 145.866 118.227 143.477 119.336C141.088 120.445 138.25 121 134.965 121H119.349ZM128.629 113.256H134.581C136.672 113.256 138.314 112.701 139.509 111.592C140.704 110.483 141.301 108.947 141.301 106.984C141.301 105.021 140.704 103.485 139.509 102.376C138.314 101.224 136.672 100.648 134.581 100.648H128.629V113.256ZM128.629 93.096H134.261C136.138 93.096 137.61 92.6053 138.677 91.624C139.744 90.6 140.277 89.2347 140.277 87.528C140.277 85.7787 139.744 84.4347 138.677 83.496C137.61 82.5147 136.138 82.024 134.261 82.024H128.629V93.096ZM234.474 121V74.28H244.074V92.2H254.826V74.28H264.426V121H254.826V101.16H244.074V121H234.474Z" fill="black"/>
<path d="M154 122L172.199 78.8493C166.987 76.5479 162.808 72.7123 159.662 67.3425C156.606 61.8767 155.078 55.7397 155.078 48.9315C155.078 42.411 156.471 36.7534 159.258 31.9589C162.133 27.1644 166.133 23.4726 171.256 20.8836C176.468 18.2945 182.535 17 189.455 17H221V122H200.913V82.3014H191.477L175.704 122H154ZM189.455 63.6027H200.913V35.6986H189.455C185.051 35.6986 181.591 36.9452 179.074 39.4384C176.558 41.9315 175.3 45.4315 175.3 49.9384C175.3 54.2534 176.558 57.6096 179.074 60.0068C181.591 62.4041 185.051 63.6027 189.455 63.6027Z" fill="black"/>
<path d="M19.2 65.64C15.9147 65.64 13.056 65.0853 10.624 63.976C8.192 62.8667 6.31467 61.3093 4.992 59.304C3.66933 57.2987 3.008 54.9307 3.008 52.2H12.608C12.608 53.7787 13.2053 55.0373 14.4 55.976C15.6373 56.872 17.3013 57.32 19.392 57.32C21.3973 57.32 22.9547 56.872 24.064 55.976C25.216 55.08 25.792 53.8427 25.792 52.264C25.792 50.8987 25.3653 49.7253 24.512 48.744C23.6587 47.7627 22.464 47.1013 20.928 46.76L16.192 45.672C12.224 44.7333 9.13067 43.0053 6.912 40.488C4.736 37.928 3.648 34.8133 3.648 31.144C3.648 28.4133 4.26667 26.0453 5.504 24.04C6.784 21.992 8.576 20.4133 10.88 19.304C13.184 18.1947 15.9147 17.64 19.072 17.64C23.8507 17.64 27.6267 18.8347 30.4 21.224C33.216 23.5707 34.624 26.7493 34.624 30.76H25.024C25.024 29.2667 24.4907 28.0933 23.424 27.24C22.4 26.3867 20.9067 25.96 18.944 25.96C17.1093 25.96 15.7013 26.3867 14.72 27.24C13.7387 28.0507 13.248 29.224 13.248 30.76C13.248 32.1253 13.632 33.2987 14.4 34.28C15.2107 35.2187 16.3413 35.8587 17.792 36.2L22.784 37.352C26.9227 38.2907 30.0587 39.9973 32.192 42.472C34.3253 44.904 35.392 48.0187 35.392 51.816C35.392 54.5467 34.7093 56.9573 33.344 59.048C32.0213 61.1387 30.144 62.76 27.712 63.912C25.3227 65.064 22.4853 65.64 19.2 65.64ZM44.455 65V18.28H54.055V56.04H72.935V65H44.455ZM128.309 65L116.725 18.28H126.645L133.109 47.784C133.322 48.808 133.578 50.1093 133.877 51.688C134.218 53.2667 134.474 54.6107 134.645 55.72C134.816 54.6107 135.029 53.2667 135.285 51.688C135.541 50.1093 135.776 48.7867 135.989 47.72L142.261 18.28H151.925L140.469 65H128.309ZM234.09 65V18.28H245.29L257.386 54.44C257.258 52.8613 257.109 51.048 256.938 49C256.767 46.9093 256.618 44.84 256.49 42.792C256.405 40.7013 256.362 38.9307 256.362 37.48V18.28H264.81V65H253.61L241.642 28.84C241.77 30.2053 241.898 31.8267 242.026 33.704C242.154 35.5813 242.261 37.48 242.346 39.4C242.474 41.32 242.538 43.0267 242.538 44.52V65H234.09Z" fill="black"/>
<rect x="85" y="22" width="21" height="95" rx="10.5" stroke="black" stroke-width="10"/>
</svg>
